<svg xmlns="http://www.w3.org/2000/svg" width="177" height="24" viewBox="0 0 177 24">
  <g fill="none" fill-rule="evenodd">
    <path fill="#FFFFFF" d="M40.1970952 4.36308434C41.3669325 4.36308434 41.3669325 6.05031325 40.1970952 6.05031325L34.873545 6.05031325C34.873545 10.4518554 34.8975402 14.9268434 34.8975402 19.3278072 34.8975402 19.9396627 34.3961813 20.2328675 33.9902388 20.2328675 33.5842962 20.2328675 33.1309278 19.9396627 33.1309278 19.3278072L33.1309278 6.05031325 27.8313727 6.05031325C26.7095258 6.05031325 26.7095258 4.36308434 27.8313727 4.36308434L40.1970952 4.36308434zM47.5023397 6.58852048L43.7305742 14.2910747 51.2503923 14.2910747 47.5023397 6.58852048zM43.0143876 15.8311229L41.0806555 19.6951229C40.651 20.599894 39.0752201 19.9634602 39.5054402 18.9861108L46.7144498 4.43661687C46.8578565 4.11854458 47.1918134 3.97223133 47.5023397 3.97223133 47.812866 3.97223133 48.0993971 4.11854458 48.2665167 4.43661687L55.4518134 18.9129542C56.0723014 19.9634602 54.3062536 20.5750265 53.8523206 19.6216771L51.9902919 15.8311229 43.0143876 15.8311229zM60.0356053 18.3503133L65.3831507 18.3503133C67.4840024 18.3503133 69.7996818 17.7879036 69.7996818 15.3179277 69.7996818 13.3860723 68.1764761 12.554747 66.0993373 12.554747L60.0356053 12.554747 60.0356053 18.3503133zM60.0356053 5.97701205L60.0356053 10.9655422 64.9060694 10.9655422C66.9589306 10.9655422 68.7489737 10.4031325 68.7489737 8.61787952 68.7489737 6.51542169 66.3141651 5.97701205 64.8338014 5.97701205L60.0356053 5.97701205zM65.3831507 19.9395181L59.1765766 19.9395181C58.6989306 19.9395181 58.292988 19.5482892 58.292988 19.0590361L58.292988 5.26828916C58.292988 4.77903614 58.6989306 4.38809639 59.1765766 4.38809639L64.8338014 4.38809639C67.0543469 4.38809639 70.4918732 5.1459759 70.4918732 8.61787952 70.4918732 9.8893012 69.8950981 11.0141205 68.6535574 11.5279518 70.3964569 12.0903614 71.5900072 13.337494 71.5900072 15.3179277 71.5900072 18.961012 68.3913038 19.9395181 65.3831507 19.9395181L65.3831507 19.9395181zM75.9351737 19.939547C75.2906904 19.939547 75.0278722 19.6214747 75.0278722 19.0347759L75.0278722 4.9988241C75.0278722 3.84971566 76.7944847 3.84971566 76.7944847 4.9988241L76.7944847 18.3254747 85.7226809 18.3254747C86.9402263 18.3254747 86.9402263 19.939547 85.7226809 19.939547L75.9351737 19.939547zM90.855822 18.3254747L100.285095 18.3254747C101.287812 18.3254747 101.431219 19.939547 100.285095 19.939547L90.2350517 19.939547C89.5665732 19.939547 89.1366354 19.450294 89.1366354 18.8635952L89.1366354 5.43892048C89.1366354 4.87651084 89.5665732 4.3881253 90.2350517 4.3881253L100.308808 4.3881253C101.335803 4.3881253 101.287812 5.95275181 100.285095 5.95275181L90.855822 5.95275181 90.855822 11.4542458 99.8317263 11.4542458C100.786454 11.4542458 100.834444 13.0188723 99.8317263 13.0188723L90.855822 13.0188723 90.855822 18.3254747zM124.898201 4.75431325C125.44755 3.87412048 126.545402 4.16761446 126.545402 5.19440964L126.545402 19.2786506C126.545402 20.4529157 124.803067 20.4529157 124.803067 19.2786506L124.803067 8.15363855 119.932603 15.9533494C119.550938 16.6629398 118.643919 16.6629398 118.285402 15.9533494L113.415785 8.17763855 113.415785 19.2786506C113.415785 20.4529157 111.672885 20.4529157 111.672885 19.2786506L111.672885 5.19440964C111.672885 4.1433253 112.81901 3.87412048 113.296373 4.75431325L119.121282 14.0463614 124.898201 4.75431325zM132.848013 18.3254747L142.277286 18.3254747C143.280004 18.3254747 143.423411 19.939547 142.277286 19.939547L132.227243 19.939547C131.558765 19.939547 131.128827 19.450294 131.128827 18.8635952L131.128827 5.43892048C131.128827 4.87651084 131.558765 4.3881253 132.227243 4.3881253L142.301281 4.3881253C143.327994 4.3881253 143.280004 5.95275181 142.277286 5.95275181L132.848013 5.95275181 132.848013 11.4542458 141.823918 11.4542458C142.778927 11.4542458 142.826635 13.0188723 141.823918 13.0188723L132.848013 13.0188723 132.848013 18.3254747zM147.219764 16.0757494C147.83997 18.1059181 150.489889 18.5457253 152.40019 18.5457253 154.429056 18.5457253 157.580333 17.910159 157.580333 15.4401831 157.580333 13.3125687 155.073257 13.1416771 152.447616 12.9219181 149.153214 12.6530024 145.620271 12.3349301 145.620271 8.69097831 145.620271 5.4637012 149.24863 4.0210988 152.161085 4.0210988 154.667879 4.0210988 157.794879 4.63179759 158.797314 7.41984578 159.155549 8.39806265 157.532343 8.83815904 157.174673 8.00654458 156.457922 6.1484241 153.903984 5.83064096 152.184798 5.83064096 150.585587 5.83064096 147.4823 6.49049639 147.4823 8.71584578 147.4823 10.8431711 149.869683 11.0632193 152.638448 11.2832675 155.908855 11.5764723 159.418649 11.7479422 159.418649 15.415894 159.418649 19.1572916 155.336357 20.3061108 152.40019 20.3061108 149.965099 20.3061108 146.240759 19.4502072 145.452869 16.5158458 145.166621 15.4401831 147.028649 15.0732434 147.219764 16.0757494M168.753155 6.58852048L164.981389 14.2910747 172.500925 14.2910747 168.753155 6.58852048zM164.264921 15.8311229L162.331753 19.6951229C161.901815 20.599894 160.326035 19.9634602 160.755973 18.9861108L167.965265 4.43661687C168.108389 4.11854458 168.442629 3.97223133 168.753155 3.97223133 169.063681 3.97223133 169.349648 4.11854458 169.516767 4.43661687L176.702629 18.9129542C177.323117 19.9634602 175.556222 20.5750265 175.103136 19.6216771L173.240543 15.8311229 164.264921 15.8311229zM13.9614043 3.88895422C13.3883421.402592771 12.2780694-.488877108 9.41473445.24326747 8.66495455.434978313 7.39292584.636231325 6.62536124 1.42273735 5.06849522 3.01801446 4.76050957 4.39093012 6.16267703 5.24423133 6.91866746 5.07623133 7.78983493 4.91748434 8.79001196 4.66476145 11.170055 4.06273735 12.7548684 3.63883373 13.9614043 3.88895422M20.4627809 17.3247036C20.4187426 15.279788 18.7368191 13.9693301 16.2342593 12.9919807 15.3292163 13.9317398 13.5569579 14.4166554 10.3689818 13.9349205 8.32797703 13.6272578 6.43658947 13.0509687 5.08269474 12.2283181 3.27938373 13.2961735 1.63161818 15.1629687.309622967 17.7812819-1.23086986 20.8327518 6.54668517 24.3040771 12.0853455 23.7361735 21.7071445 22.7484145 20.5373072 20.7584386 20.4627809 17.3247036"/>
    <path fill="#FFFFFF" d="M10.3282182,11.3506988 C12.7542756,11.8113253 15.3974191,12.6478554 16.8269694,13.2811084 C18.2074,11.8483373 17.7424574,9.44862651 17.0242947,7.58472289 C16.1000555,5.18501205 15.2446967,4.1553253 13.9613761,3.88901205 C13.9757732,3.97633735 13.9912995,4.05759036 14.0045675,4.14809639 C14.1951177,5.40708434 12.8858258,6.45151807 9.14962967,6.05450602 C7.77738565,5.90877108 6.79584019,5.62944578 6.1626488,5.244 C4.27154354,5.66443373 3.10622297,6.14183133 2.47698373,8.29749398 C1.97534258,10.0136386 2.98427081,11.4380241 4.69160096,12.4746506 C6.48503158,11.4122892 7.93434258,10.8961446 10.3282182,11.3506988"/>
    <path fill="#A5DFD3" d="M16.8546909 13.2488386C14.8035234 12.2284048 12.2148632 11.569706 10.2630641 11.2487422 8.47923158 10.954959 6.76964306 11.0318747 4.69165742 12.4744771 6.04583445 13.2971277 8.32792057 13.6267663 10.3689254 13.9347181 13.5569014 14.4161639 15.9496478 14.1883084 16.8546909 13.2488386M14.0047086 4.14803855C13.9911584 4.05782169 13.9756321 3.97627952 13.9615172 3.88895422 12.754699 3.63883373 11.1701679 4.06273735 8.78984258 4.66476145 7.78966555 4.91748434 6.91849809 5.07623133 6.16278995 5.24423133 6.79598134 5.62938795 7.7772445 5.90871325 9.14977081 6.05444819 12.8856847 6.45146024 14.1952589 5.40702651 14.0047086 4.14803855"/>
  </g>
</svg>
